<svg width="155px" height="174px" viewBox="38 30 155 174" version="1.1" xmlns="http://www.w3.org/2000/svg" xmlns:xlink="http://www.w3.org/1999/xlink">
    <!-- Generator: Sketch 40.2 (33826) - http://www.bohemiancoding.com/sketch -->
    <desc>Created with Sketch.</desc>
    <defs></defs>
    <g id="Page-1" stroke="none" stroke-width="1" fill="none" fill-rule="evenodd" transform="translate(40.000000, 32.000000)" stroke-linecap="round" stroke-linejoin="round">
        <path d="M89.3421,13.8712 C89.3421,6.3492 83.2411,0.2502 75.7121,0.2502 C68.1841,0.2502 62.0821,6.3492 62.0821,13.8712 C62.0821,21.3972 68.1841,27.4962 75.7121,27.4962 C83.2411,27.4962 89.3421,21.3972 89.3421,13.8712 L89.3421,13.8712 Z" id="Stroke-1" stroke="#FFFFFF" stroke-width="3.118"></path>
        <path d="M144.3735,61.344 C150.8875,57.583 153.1195,49.249 149.3545,42.73 C145.5905,36.21 137.2575,33.976 130.7435,37.737 C124.2265,41.499 121.9945,49.833 125.7585,56.353 C129.5225,62.873 137.8555,65.107 144.3735,61.344 L144.3735,61.344 Z" id="Stroke-3" stroke="#FFFFFF" stroke-width="3.118"></path>
        <path d="M130.7486,132.7552 C137.2626,136.5162 145.5956,134.2822 149.3596,127.7622 C153.1236,121.2422 150.8926,112.9082 144.3786,109.1482 C137.8606,105.3852 129.5276,107.6192 125.7636,114.1392 C121.9996,120.6582 124.2306,128.9922 130.7486,132.7552 L130.7486,132.7552 Z" id="Stroke-5" stroke="#FFFFFF" stroke-width="3.118"></path>
        <path d="M62.0922,156.6288 C62.0922,164.1508 68.1932,170.2498 75.7222,170.2498 C83.2502,170.2498 89.3522,164.1508 89.3522,156.6288 C89.3522,149.1028 83.2502,143.0038 75.7222,143.0038 C68.1932,143.0038 62.0922,149.1028 62.0922,156.6288 L62.0922,156.6288 Z" id="Stroke-7" stroke="#FFFFFF" stroke-width="3.118"></path>
        <path d="M7.0607,109.1561 C0.5467,112.9171 -1.6853,121.2501 2.0797,127.7701 C5.8437,134.2901 14.1767,136.5241 20.6907,132.7631 C27.2077,129.0011 29.4397,120.6671 25.6757,114.1471 C21.9117,107.6271 13.5787,105.3931 7.0607,109.1561 L7.0607,109.1561 Z" id="Stroke-9" stroke="#FFFFFF" stroke-width="3.118"></path>
        <path d="M20.7033,37.7625 C14.1893,34.0015 5.8563,36.2355 2.0923,42.7555 C-1.6717,49.2755 0.5593,57.6095 7.0733,61.3695 C13.5913,65.1325 21.9243,62.8985 25.6883,56.3785 C29.4523,49.8595 27.2213,41.5255 20.7033,37.7625 L20.7033,37.7625 Z" id="Stroke-11" stroke="#FFFFFF" stroke-width="3.118"></path>
        <path d="M63.4426,20.6821 L25.5116,42.4721" id="Stroke-13" stroke="#FFFFFF" stroke-width="3.118"></path>
        <path d="M125.3599,128.2013 L87.6539,149.9523" id="Stroke-15" stroke="#FFFFFF" stroke-width="3.118"></path>
        <path d="M13,63.0898 L13,107.3868" id="Stroke-17" stroke="#FFFFFF" stroke-width="3.118"></path>
        <path d="M138,63.0898 L138,107.2448" id="Stroke-19" stroke="#FFFFFF" stroke-width="3.118"></path>
        <path d="M87.6536,20.4944 L125.8556,42.4444" id="Stroke-21" stroke="#FFFFFF" stroke-width="3.118"></path>
        <path d="M25.6267,128.2013 L63.4427,150.7963" id="Stroke-23" stroke="#FFFFFF" stroke-width="3.118"></path>
        <path d="M99.4643,98.9606 L125.7633,114.1386" id="Stroke-25" stroke="#FFFFFF" stroke-width="3.118"></path>
        <path d="M75,57.8313 L75,27.4643" id="Stroke-27" stroke="#FFFFFF" stroke-width="3.118"></path>
        <path d="M51.9711,98.9606 L25.6751,114.1476" id="Stroke-29" stroke="#FFFFFF" stroke-width="3.118"></path>
        <polygon id="Stroke-31" stroke="#FFFFFF" stroke-width="3.118" points="75.7177 57.8303 99.4647 71.5403 99.4647 98.9603 75.7177 112.6703 51.9707 98.9603 51.9707 71.5403"></polygon>
    </g>
</svg>