<svg width="169px" height="169px" viewBox="32 33 169 169" version="1.1" xmlns="http://www.w3.org/2000/svg" xmlns:xlink="http://www.w3.org/1999/xlink">
    <!-- Generator: Sketch 40.2 (33826) - http://www.bohemiancoding.com/sketch -->
    <desc>Created with Sketch.</desc>
    <defs></defs>
    <g id="Page-1" stroke="none" stroke-width="1" fill="none" fill-rule="evenodd" transform="translate(34.000000, 35.000000)">
        <path d="M165.25,82.75 C165.25,128.313 128.313,165.25 82.75,165.25 C37.187,165.25 0.25,128.313 0.25,82.75 C0.25,37.187 37.187,0.25 82.75,0.25 C128.313,0.25 165.25,37.187 165.25,82.75 L165.25,82.75 Z" id="Stroke-1" stroke="#FFFFFF" stroke-width="3.118" stroke-linecap="round"></path>
        <path d="M134.8835,82.75 C134.8835,111.543 111.5425,134.884 82.7495,134.884 C53.9575,134.884 30.6165,111.543 30.6165,82.75 C30.6165,53.957 53.9575,30.616 82.7495,30.616 C111.5425,30.616 134.8835,53.957 134.8835,82.75 L134.8835,82.75 Z" id="Stroke-3" stroke="#FFFFFF" stroke-width="3.118" stroke-linecap="round"></path>
        <path d="M109.0508,82.75 C109.0508,97.276 97.2758,109.051 82.7498,109.051 C68.2248,109.051 56.4488,97.276 56.4488,82.75 C56.4488,68.224 68.2248,56.449 82.7498,56.449 C97.2758,56.449 109.0508,68.224 109.0508,82.75 L109.0508,82.75 Z" id="Stroke-5" stroke="#FFFFFF" stroke-width="3.118" stroke-linecap="round"></path>
        <path d="M90.6402,82.75 C90.6402,87.108 87.1072,90.64 82.7502,90.64 C78.3922,90.64 74.8602,87.108 74.8602,82.75 C74.8602,78.392 78.3922,74.86 82.7502,74.86 C87.1072,74.86 90.6402,78.392 90.6402,82.75" id="Fill-7" fill="#FFFFFF"></path>
    </g>
</svg>