<svg width="147px" height="169px" viewBox="42 33 147 169" version="1.1" xmlns="http://www.w3.org/2000/svg" xmlns:xlink="http://www.w3.org/1999/xlink">
    <!-- Generator: Sketch 40.2 (33826) - http://www.bohemiancoding.com/sketch -->
    <desc>Created with Sketch.</desc>
    <defs></defs>
    <g id="Page-1" stroke="none" stroke-width="1" fill="none" fill-rule="evenodd" transform="translate(44.000000, 35.000000)" stroke-linecap="round" stroke-linejoin="round">
        <polygon id="Stroke-1" stroke="#FFFFFF" stroke-width="3.118" points="143.1442 124 71.6972 165.25 0.2502 124 0.2502 41.5 71.6972 0.25 143.1442 41.5"></polygon>
        <polyline id="Stroke-3" stroke="#FFFFFF" stroke-width="3.118" points="113.6444 46.9822 123.7474 52.8152 123.7474 64.4812"></polyline>
        <polyline id="Stroke-4" stroke="#FFFFFF" stroke-width="3.118" points="61.5942 77.1299 71.6972 82.9629 71.6972 94.6289"></polyline>
        <polyline id="Stroke-5" stroke="#FFFFFF" stroke-width="3.118" points="123.7071 100.8846 123.7391 112.5506 113.6531 118.4116"></polyline>
        <polyline id="Stroke-6" stroke="#FFFFFF" stroke-width="3.118" points="61.5942 27.3956 71.7152 21.5936 81.8002 27.4576"></polyline>
        <g id="Group-17" transform="translate(1.000000, 22.500000)" stroke="#FFFFFF" stroke-width="3.118">
            <path d="M94.0233,60.25 C94.0233,73.133 83.5803,83.576 70.6973,83.576 C57.8143,83.576 47.3713,73.133 47.3713,60.25 C47.3713,47.367 57.8143,36.924 70.6973,36.924 C83.5803,36.924 94.0233,47.367 94.0233,60.25 L94.0233,60.25 Z" id="Stroke-7"></path>
            <path d="M92.4404,72.5246 L121.3684,89.2746" id="Stroke-9"></path>
            <path d="M68.9382,61.4734 L0.5152,101.0814" id="Stroke-11"></path>
            <path d="M120.9448,31.3504 L91.5598,48.3644" id="Stroke-13"></path>
            <path d="M70,36.9238 L70,0.7198" id="Stroke-15"></path>
        </g>
    </g>
</svg>