<?xml version="1.0" encoding="UTF-8"?>
<svg width="320px" height="320px" viewBox="0 0 320 320" version="1.1" xmlns="http://www.w3.org/2000/svg" xmlns:xlink="http://www.w3.org/1999/xlink">
    <!-- Generator: Sketch 40.3 (33839) - http://www.bohemiancoding.com/sketch -->
    <title>CustomerAnalytics_320</title>
    <desc>Created with Sketch.</desc>
    <defs></defs>
    <g id="Page-1" stroke="none" stroke-width="1" fill="none" fill-rule="evenodd" stroke-linecap="round" stroke-linejoin="round">
        <g id="CustomerAnalytics_320" stroke="#FFFFFF" stroke-width="7.42500016">
            <g id="Page-1" transform="translate(28.000000, 28.000000)">
                <path d="M149.517774,182.604043 C149.517774,173.252739 141.9376,165.672565 132.586296,165.672565 C123.236643,165.672565 115.65647,173.252739 115.65647,182.604043 C115.65647,191.955348 123.236643,199.535522 132.586296,199.535522 C141.9376,199.535522 149.517774,191.955348 149.517774,182.604043 L149.517774,182.604043 Z" id="Stroke-1"></path>
                <path d="M224.825513,66.5679043 C224.825513,57.2166 217.245339,49.6364261 207.894035,49.6364261 C198.544383,49.6364261 190.964209,57.2166 190.964209,66.5679043 C190.964209,75.9192087 198.544383,83.4993826 207.894035,83.4993826 C217.245339,83.4993826 224.825513,75.9192087 224.825513,66.5679043 L224.825513,66.5679043 Z" id="Stroke-3"></path>
                <path d="M73.1709826,132.780096 C73.1709826,123.428791 65.5908087,115.848617 56.2395043,115.848617 C46.8898522,115.848617 39.3096783,123.428791 39.3096783,132.780096 C39.3096783,142.1314 46.8898522,149.711574 56.2395043,149.711574 C65.5908087,149.711574 73.1709826,142.1314 73.1709826,132.780096 L73.1709826,132.780096 Z" id="Stroke-5"></path>
                <path d="M39.3093478,132.640983 L0.412217391,132.640983" id="Stroke-7"></path>
                <path d="M264.76087,66.5456 L226.415565,66.5456" id="Stroke-9"></path>
                <path d="M70.3237913,142.180139 L118.258313,173.581357" id="Stroke-11"></path>
                <path d="M141.559087,168.243348 L199.327348,81.1737826" id="Stroke-13"></path>
                <polyline id="Stroke-15" points="0.413043478 0.412382609 0.413043478 264.763513 264.76087 264.763513"></polyline>
            </g>
        </g>
    </g>
</svg>