<?xml version="1.0" encoding="UTF-8"?>
<svg width="320px" height="320px" viewBox="0 0 320 320" version="1.1" xmlns="http://www.w3.org/2000/svg" xmlns:xlink="http://www.w3.org/1999/xlink">
    <!-- Generator: Sketch 40.3 (33839) - http://www.bohemiancoding.com/sketch -->
    <title>EmailMarketing_320</title>
    <desc>Created with Sketch.</desc>
    <defs></defs>
    <g id="Page-1" stroke="none" stroke-width="1" fill="none" fill-rule="evenodd" stroke-linecap="round" stroke-linejoin="round">
        <g id="EmailMarketing_320" stroke="#FFFFFF" stroke-width="7.42170016">
            <g id="Page-1" transform="translate(19.000000, 18.000000)">
                <path d="M189.319553,190.638467 L92.6990497,94.1874442" id="Stroke-1"></path>
                <path d="M72.0274719,142.412791 L210.078513,142.412791" id="Stroke-2"></path>
                <path d="M141.008143,210.61473 L141.008143,74.2039163" id="Stroke-3"></path>
                <path d="M189.319553,94.1844721 L92.6990497,190.635495" id="Stroke-4"></path>
                <g id="Group-21" transform="translate(0.000000, 0.822279)">
                    <path d="M164.048977,23.968114 C164.048977,11.4176256 153.746784,1.23985814 141.051503,1.23985814 C128.346292,1.23985814 118.052374,11.4176256 118.052374,23.968114 C118.052374,36.5186023 128.346292,46.6963698 141.051503,46.6963698 C153.746784,46.6963698 164.048977,36.5186023 164.048977,23.968114 L164.048977,23.968114 Z" id="Stroke-5"></path>
                    <path d="M73.9831509,42.1538558 C65.090993,33.2772047 50.6033789,33.3564605 41.6218526,42.3222744 C32.6419813,51.2880884 32.5708175,65.7407163 41.4629754,74.6173674 C50.3551333,83.4940186 64.8328175,83.4230186 73.8143439,74.4572047 C82.7958702,65.4930419 82.8753088,51.030507 73.9831509,42.1538558 L73.9831509,42.1538558 Z" id="Stroke-7"></path>
                    <path d="M23.1795205,118.588493 C10.6083626,118.588493 0.412087719,128.871935 0.412087719,141.54626 C0.412087719,154.228842 10.6083626,164.504028 23.1795205,164.504028 C35.7506784,164.504028 45.9469532,154.228842 45.9469532,141.54626 C45.9469532,128.871935 35.7506784,118.588493 23.1795205,118.588493 L23.1795205,118.588493 Z" id="Stroke-9"></path>
                    <path d="M41.3981006,208.495793 C32.5059427,217.372444 32.5853813,231.834979 41.5669076,240.799142 C50.5484339,249.764956 65.0261181,249.835956 73.918276,240.959305 C82.8104339,232.082653 82.7392702,217.630026 73.7593988,208.664212 C64.7778725,199.698398 50.2902585,199.619142 41.3981006,208.495793 L41.3981006,208.495793 Z" id="Stroke-11"></path>
                    <path d="M117.966316,259.210267 C117.966316,271.760756 128.268509,281.938523 140.963789,281.938523 C153.669,281.938523 163.962918,271.760756 163.962918,259.210267 C163.962918,246.659779 153.669,236.482012 140.963789,236.482012 C128.268509,236.482012 117.966316,246.659779 117.966316,259.210267 L117.966316,259.210267 Z" id="Stroke-13"></path>
                    <path d="M208.032142,241.0237 C216.924299,249.900351 231.411913,249.821095 240.39344,240.855281 C249.373311,231.889467 249.444475,217.43684 240.552317,208.560188 C231.660159,199.683537 217.182475,199.754537 208.200949,208.720351 C199.219422,217.684514 199.139984,232.147049 208.032142,241.0237 L208.032142,241.0237 Z" id="Stroke-15"></path>
                    <path d="M258.835772,164.590053 C271.40693,164.590053 281.603205,154.306612 281.603205,141.632286 C281.603205,128.949705 271.40693,118.674519 258.835772,118.674519 C246.264614,118.674519 236.068339,128.949705 236.068339,141.632286 C236.068339,154.306612 246.264614,164.590053 258.835772,164.590053 L258.835772,164.590053 Z" id="Stroke-17"></path>
                    <path d="M240.618019,74.6825884 C249.510177,65.8059372 249.430739,51.3434023 240.449212,42.3792395 C231.467686,33.4134256 216.990002,33.3424256 208.097844,42.2190767 C199.205686,51.0957279 199.27685,65.5483558 208.256721,74.5141698 C217.238247,83.4799837 231.725861,83.5592395 240.618019,74.6825884 L240.618019,74.6825884 Z" id="Stroke-19"></path>
                </g>
            </g>
        </g>
    </g>
</svg>