<?xml version="1.0" encoding="UTF-8"?>
<svg width="320px" height="320px" viewBox="0 0 320 320" version="1.1" xmlns="http://www.w3.org/2000/svg" xmlns:xlink="http://www.w3.org/1999/xlink">
    <!-- Generator: Sketch 40.3 (33839) - http://www.bohemiancoding.com/sketch -->
    <title>MobileMarketing_320</title>
    <desc>Created with Sketch.</desc>
    <defs></defs>
    <g id="Page-1" stroke="none" stroke-width="1" fill="none" fill-rule="evenodd" stroke-linecap="round" stroke-linejoin="round">
        <g id="MobileMarketing_320" stroke="#FFFFFF" stroke-width="7.42500016">
            <g id="Page-1" transform="translate(35.000000, 19.000000)">
                <path d="M147.53202,22.9564304 C147.53202,10.5077404 137.457343,0.414073684 125.024586,0.414073684 C112.593481,0.414073684 102.517152,10.5077404 102.517152,22.9564304 C102.517152,35.4117404 112.593481,45.505407 125.024586,45.505407 C137.457343,45.505407 147.53202,35.4117404 147.53202,22.9564304 L147.53202,22.9564304 Z" id="Stroke-1"></path>
                <path d="M238.40624,101.522526 C249.162911,95.2981813 252.848648,81.505655 246.631444,70.7169006 C240.415891,59.9264912 226.655477,56.2292865 215.898806,62.4536316 C205.137181,68.6796316 201.451444,82.4721579 207.666997,93.2625673 C213.882549,104.052977 227.642964,107.750181 238.40624,101.522526 L238.40624,101.522526 Z" id="Stroke-3"></path>
                <path d="M215.907228,219.705974 C226.663899,225.930319 240.424313,222.233115 246.639866,211.442705 C252.855418,200.652296 249.171333,186.85977 238.414662,180.63708 C227.651386,174.409425 213.890971,178.106629 207.675418,188.897039 C201.459866,199.685793 205.143951,213.478319 215.907228,219.705974 L215.907228,219.705974 Z" id="Stroke-5"></path>
                <path d="M102.53383,259.216084 C102.53383,271.664774 112.608508,281.758441 125.041264,281.758441 C137.47237,281.758441 147.548699,271.664774 147.548699,259.216084 C147.548699,246.760774 137.47237,236.667108 125.041264,236.667108 C112.608508,236.667108 102.53383,246.760774 102.53383,259.216084 L102.53383,259.216084 Z" id="Stroke-7"></path>
                <path d="M11.6594454,180.650154 C0.902774342,186.874499 -2.7829625,200.66537 3.43424145,211.45578 C9.64979408,222.246189 23.4102086,225.943394 34.1668796,219.719049 C44.9285046,213.493049 48.6142414,199.700522 42.3986888,188.910113 C36.1831362,178.119704 22.4227217,174.422499 11.6594454,180.650154 L11.6594454,180.650154 Z" id="Stroke-9"></path>
                <path d="M34.1876862,62.4958333 C23.4310151,56.2714883 9.67060066,59.968693 3.45504803,70.7591023 C-2.76050461,81.5495117 0.923580921,95.342038 11.680252,101.564728 C22.4435283,107.792383 36.2039428,104.095178 42.4194954,93.304769 C48.635048,82.5160146 44.9509625,68.7234883 34.1876862,62.4958333 L34.1876862,62.4958333 Z" id="Stroke-11"></path>
                <path d="M104.763767,34.2282708 L42.1277079,70.2900836" id="Stroke-13"></path>
                <path d="M207.008782,212.169403 L144.744269,248.166672" id="Stroke-15"></path>
                <path d="M22.0511757,104.411774 L22.0511757,177.722014" id="Stroke-17"></path>
                <path d="M227.99585,104.411774 L227.99585,177.487008" id="Stroke-19"></path>
                <path d="M144.743774,33.9176327 L207.827339,70.2442409" id="Stroke-21"></path>
                <path d="M42.3177743,212.169403 L104.763932,249.563467" id="Stroke-23"></path>
                <path d="M164.246969,163.776899 L207.674923,188.896046" id="Stroke-25"></path>
                <path d="M125.034824,95.7091105 L125.034824,45.4526135" id="Stroke-27"></path>
                <path d="M85.820698,163.776899 L42.397698,188.91094" id="Stroke-29"></path>
                <polygon id="Stroke-31" points="125.033834 95.7074556 164.24763 118.397105 164.24763 163.776403 125.033834 186.466052 85.8200375 163.776403 85.8200375 118.397105"></polygon>
            </g>
        </g>
    </g>
</svg>