<?xml version="1.0" encoding="UTF-8"?>
<svg width="320px" height="320px" viewBox="0 0 320 320" version="1.1" xmlns="http://www.w3.org/2000/svg" xmlns:xlink="http://www.w3.org/1999/xlink">
    <!-- Generator: Sketch 40.3 (33839) - http://www.bohemiancoding.com/sketch -->
    <title>SocialMarketing_320</title>
    <desc>Created with Sketch.</desc>
    <defs></defs>
    <g id="Page-1" stroke="none" stroke-width="1" fill="none" fill-rule="evenodd">
        <g id="SocialMarketing_320">
            <g id="Page-1" transform="translate(18.000000, 18.000000)">
                <path d="M0.412790698,141.805658 C0.412790698,63.7155651 63.706814,0.411634884 141.783698,0.411634884 C219.862233,0.411634884 283.156256,63.7155651 283.156256,141.805658 C283.156256,219.895751 219.862233,283.199681 141.783698,283.199681 C63.706814,283.199681 0.412790698,219.895751 0.412790698,141.805658 L0.412790698,141.805658 Z" id="Stroke-1" stroke="#FFFFFF" stroke-width="7.42500016" stroke-linecap="round" stroke-linejoin="round"></path>
                <path d="M46.8373791,141.805658 C46.8373791,89.3581233 89.3465651,46.8406814 141.787495,46.8406814 C194.221821,46.8406814 236.732658,89.3581233 236.732658,141.805658 C236.732658,194.254844 194.221821,236.770635 141.787495,236.770635 C89.3465651,236.770635 46.8373791,194.254844 46.8373791,141.805658 L46.8373791,141.805658 Z" id="Stroke-3" stroke="#FFFFFF" stroke-width="7.42500016" stroke-linecap="round" stroke-linejoin="round"></path>
                <path d="M94.6618233,141.805658 C94.6618233,115.773426 115.762033,94.6765186 141.784358,94.6765186 C167.811637,94.6765186 188.911847,115.773426 188.911847,141.805658 C188.911847,167.837891 167.811637,188.934798 141.784358,188.934798 C115.762033,188.934798 94.6618233,167.837891 94.6618233,141.805658 L94.6618233,141.805658 Z" id="Stroke-5" stroke="#FFFFFF" stroke-width="7.42500016" stroke-linecap="round" stroke-linejoin="round"></path>
                <path d="M152.143258,141.805658 C152.143258,136.084379 147.500188,131.446263 141.785514,131.446263 C136.064235,131.446263 131.434374,136.084379 131.434374,141.805658 C131.434374,147.528588 136.064235,152.165053 141.785514,152.165053 C147.500188,152.165053 152.143258,147.528588 152.143258,141.805658" id="Fill-7" fill="#FFFFFF"></path>
            </g>
        </g>
    </g>
</svg>