<svg width="170px" height="170px" viewBox="31 30 170 170" version="1.1" xmlns="http://www.w3.org/2000/svg" xmlns:xlink="http://www.w3.org/1999/xlink">
    <!-- Generator: Sketch 40.2 (33826) - http://www.bohemiancoding.com/sketch -->
    <desc>Created with Sketch.</desc>
    <defs></defs>
    <g id="Page-1" stroke="none" stroke-width="1" fill="none" fill-rule="evenodd" transform="translate(33.000000, 32.000000)" stroke-linecap="round" stroke-linejoin="round">
        <path d="M93.8701814,114.642388 C93.8701814,108.771457 89.1112,104.012475 83.2402683,104.012475 C77.3703739,104.012475 72.6113925,108.771457 72.6113925,114.642388 C72.6113925,120.51332 77.3703739,125.272301 83.2402683,125.272301 C89.1112,125.272301 93.8701814,120.51332 93.8701814,114.642388 L93.8701814,114.642388 Z" id="Stroke-1" stroke="#FFFFFF" stroke-width="3.24271988"></path>
        <path d="M141.149852,41.7926317 C141.149852,35.9217 136.390871,31.1627186 130.519939,31.1627186 C124.650045,31.1627186 119.891063,35.9217 119.891063,41.7926317 C119.891063,47.6635634 124.650045,52.4225447 130.519939,52.4225447 C136.390871,52.4225447 141.149852,47.6635634 141.149852,41.7926317 L141.149852,41.7926317 Z" id="Stroke-3" stroke="#FFFFFF" stroke-width="3.24271988"></path>
        <path d="M45.9381733,83.3619398 C45.9381733,77.4910081 41.1791919,72.7320267 35.3082602,72.7320267 C29.4383658,72.7320267 24.6793845,77.4910081 24.6793845,83.3619398 C24.6793845,89.2328714 29.4383658,93.9918528 35.3082602,93.9918528 C41.1791919,93.9918528 45.9381733,89.2328714 45.9381733,83.3619398 L45.9381733,83.3619398 Z" id="Stroke-5" stroke="#FFFFFF" stroke-width="3.24271988"></path>
        <path d="M24.679177,82.9813665 L0.258798137,82.9813665" id="Stroke-7" stroke="#FFFFFF" stroke-width="3.24271988"></path>
        <path d="M166.22205,41.4906832 L142.148118,41.4906832" id="Stroke-9" stroke="#FFFFFF" stroke-width="3.24271988"></path>
        <path d="M44.1506509,89.2634708 L74.2448807,108.977769" id="Stroke-11" stroke="#FFFFFF" stroke-width="3.24271988"></path>
        <path d="M88.8735621,105.626463 L125.141606,50.9624876" id="Stroke-13" stroke="#FFFFFF" stroke-width="3.24271988"></path>
        <polyline id="Stroke-15" stroke="#FFFFFF" stroke-width="3.24271988" points="0.25931677 0.258901863 0.25931677 166.223709 166.22205 166.223709"></polyline>
    </g>
</svg>